<svg xmlns="http://www.w3.org/2000/svg" viewBox="0 0 400 32.33"><defs><style>.a{fill:none;}.b{isolation:isolate;}</style></defs><title>bpetch2</title><rect class="a" y="0.93" width="400" height="31.4"/><g class="b"><path d="M109.78,46.57V19.37H120a12.64,12.64,0,0,1,5,.83,6.47,6.47,0,0,1,3,2.54A6.7,6.7,0,0,1,129,26.33a6.16,6.16,0,0,1-.95,3.28,6.7,6.7,0,0,1-2.86,2.49,7.13,7.13,0,0,1,3.8,2.47,6.62,6.62,0,0,1,1.32,4.12,8,8,0,0,1-.8,3.55,6.92,6.92,0,0,1-2,2.53,8.12,8.12,0,0,1-3,1.35,18.21,18.21,0,0,1-4.38.45Zm3.6-15.77h5.88a13.28,13.28,0,0,0,3.44-.31,3.58,3.58,0,0,0,2.76-3.73,4.33,4.33,0,0,0-.65-2.39A3.33,3.33,0,0,0,123,23a15.73,15.73,0,0,0-4.14-.38h-5.44Zm0,12.56h6.78a15.05,15.05,0,0,0,2.44-.13,5.78,5.78,0,0,0,2.08-.74A3.9,3.9,0,0,0,126.06,41a4.84,4.84,0,0,0,.53-2.29,4.53,4.53,0,0,0-.78-2.65,4.08,4.08,0,0,0-2.16-1.57,13.15,13.15,0,0,0-4-.46h-6.29Z" transform="translate(0 -19.37)"/><path d="M134.81,46.57V26.87h3v3a8.24,8.24,0,0,1,2.12-2.77,3.77,3.77,0,0,1,2.15-.67,6.5,6.5,0,0,1,3.43,1.08l-1.15,3.1a4.81,4.81,0,0,0-2.45-.73,3.18,3.18,0,0,0-2,.66,3.59,3.59,0,0,0-1.24,1.83,13.08,13.08,0,0,0-.56,3.9V46.57Z" transform="translate(0 -19.37)"/><path d="M161,40.23l3.46.42a8.46,8.46,0,0,1-3,4.7,10.26,10.26,0,0,1-12.5-1c-1.68-1.78-2.53-4.27-2.53-7.47s.86-5.89,2.56-7.72a8.67,8.67,0,0,1,6.64-2.75,8.44,8.44,0,0,1,6.46,2.69q2.5,2.7,2.51,7.57c0,.2,0,.5,0,.89h-14.7a7.62,7.62,0,0,0,1.84,5,5.46,5.46,0,0,0,4.12,1.72,5.11,5.11,0,0,0,3.13-1A6.31,6.31,0,0,0,161,40.23Zm-11-5.4h11a6.71,6.71,0,0,0-1.26-3.73,5.1,5.1,0,0,0-4.14-1.93,5.31,5.31,0,0,0-3.87,1.54A6.12,6.12,0,0,0,150,34.83Z" transform="translate(0 -19.37)"/><path d="M175.93,43.59l.48,2.95a12.91,12.91,0,0,1-2.52.29,5.77,5.77,0,0,1-2.82-.57,3.2,3.2,0,0,1-1.41-1.51,12.05,12.05,0,0,1-.41-4V29.47H166.8v-2.6h2.45V22l3.32-2v6.89h3.36v2.6h-3.36V41a5.77,5.77,0,0,0,.18,1.84,1.41,1.41,0,0,0,.57.64,2.14,2.14,0,0,0,1.14.25A12.05,12.05,0,0,0,175.93,43.59Z" transform="translate(0 -19.37)"/><path d="M186.49,43.59l.48,2.95a12.91,12.91,0,0,1-2.52.29,5.71,5.71,0,0,1-2.82-.57,3.2,3.2,0,0,1-1.41-1.51,11.77,11.77,0,0,1-.41-4V29.47h-2.45v-2.6h2.45V22l3.32-2v6.89h3.36v2.6h-3.36V41a5.77,5.77,0,0,0,.18,1.84,1.36,1.36,0,0,0,.57.64,2.14,2.14,0,0,0,1.14.25A12.22,12.22,0,0,0,186.49,43.59Z" transform="translate(0 -19.37)"/><path d="M200.74,46.57V19.37H211a25.27,25.27,0,0,1,4.14.26,8.3,8.3,0,0,1,3.36,1.27,6.8,6.8,0,0,1,2.18,2.63,8.31,8.31,0,0,1,.82,3.71,8.37,8.37,0,0,1-2.21,5.87q-2.21,2.4-8,2.4h-7V46.57Zm3.6-14.27h7q3.49,0,4.95-1.29a4.64,4.64,0,0,0,1.47-3.66,4.94,4.94,0,0,0-.86-2.92,4.08,4.08,0,0,0-2.28-1.61,15.34,15.34,0,0,0-3.35-.24h-7Z" transform="translate(0 -19.37)"/><path d="M239.15,40.23l3.45.42a8.46,8.46,0,0,1-3,4.7,10.24,10.24,0,0,1-12.49-1q-2.54-2.67-2.54-7.47c0-3.32.86-5.89,2.56-7.72a8.7,8.7,0,0,1,6.65-2.75,8.43,8.43,0,0,1,6.45,2.69q2.51,2.7,2.51,7.57c0,.2,0,.5,0,.89H228a7.56,7.56,0,0,0,1.83,5A5.47,5.47,0,0,0,234,44.27a5.14,5.14,0,0,0,3.14-1A6.45,6.45,0,0,0,239.15,40.23Zm-11-5.4h11a6.63,6.63,0,0,0-1.26-3.73,5.1,5.1,0,0,0-4.14-1.93,5.27,5.27,0,0,0-3.86,1.54A6.08,6.08,0,0,0,228.18,34.83Z" transform="translate(0 -19.37)"/><path d="M254.08,43.59l.49,2.95a13.08,13.08,0,0,1-2.53.29,5.77,5.77,0,0,1-2.82-.57,3.2,3.2,0,0,1-1.41-1.51,12.05,12.05,0,0,1-.41-4V29.47H245v-2.6h2.45V22l3.32-2v6.89h3.36v2.6h-3.36V41a5.77,5.77,0,0,0,.18,1.84,1.38,1.38,0,0,0,.58.64,2.1,2.1,0,0,0,1.14.25A11.91,11.91,0,0,0,254.08,43.59Z" transform="translate(0 -19.37)"/><path d="M270.21,39.36l3.28.42a8.55,8.55,0,0,1-2.75,5.32A8,8,0,0,1,265.29,47a8.43,8.43,0,0,1-6.5-2.65c-1.64-1.76-2.46-4.28-2.46-7.58a13.65,13.65,0,0,1,1.06-5.58,7.3,7.3,0,0,1,3.22-3.59,9.5,9.5,0,0,1,4.7-1.2,8.13,8.13,0,0,1,5.25,1.63,7.48,7.48,0,0,1,2.62,4.61l-3.25.5a5.42,5.42,0,0,0-1.64-3,4.26,4.26,0,0,0-2.85-1,5.17,5.17,0,0,0-4.1,1.81q-1.57,1.8-1.58,5.72t1.52,5.77a5,5,0,0,0,4,1.8,4.71,4.71,0,0,0,3.29-1.2A6,6,0,0,0,270.21,39.36Z" transform="translate(0 -19.37)"/><path d="M276.35,46.57V19.37h3.34v9.76a7.47,7.47,0,0,1,5.9-2.71,7.87,7.87,0,0,1,3.8.87,5,5,0,0,1,2.31,2.38,10.88,10.88,0,0,1,.7,4.42V46.57h-3.34V34.09A5.14,5.14,0,0,0,288,30.44a4,4,0,0,0-3.07-1.14,5.43,5.43,0,0,0-2.79.77,4.33,4.33,0,0,0-1.86,2.09,9.4,9.4,0,0,0-.56,3.63V46.57Z" transform="translate(0 -19.37)"/></g></svg>